<svg width="760" height="720" viewBox="0 0 760 720" fill="none" xmlns="http://www.w3.org/2000/svg">
  <defs>
    <linearGradient id="erkas-purple" x1="178" y1="98" x2="566" y2="584" gradientUnits="userSpaceOnUse">
      <stop stop-color="#A870EE" />
      <stop offset="1" stop-color="#7C42C3" />
    </linearGradient>
  </defs>
  <g fill="url(#erkas-purple)" stroke="url(#erkas-purple)" stroke-linecap="round" stroke-linejoin="round">
    <path d="M191 229L338 116L365 152L226 259L191 229Z" stroke-width="8" />
    <path d="M569 229L422 116L395 152L534 259L569 229Z" stroke-width="8" />
    <circle cx="378" cy="108" r="25" fill="white" stroke-width="16" />
    <circle cx="319" cy="137" r="24" fill="white" stroke-width="16" />
    <circle cx="437" cy="137" r="24" fill="white" stroke-width="16" />
    <path d="M252 192V308H290V239L339 202" stroke-width="18" />
    <path d="M504 192V308H466V239L417 202" stroke-width="18" />
    <path d="M350 248H447C455 248 462 254 462 262V292H350V248Z" stroke-width="0" />
    <rect x="338" y="233" width="137" height="25" rx="12.5" stroke-width="0" />
    <rect x="362" y="289" width="40" height="205" rx="14" stroke-width="0" />
    <path d="M180 351C180 336 192 324 207 324H320L224 463C219 471 209 474 201 469L188 460C182 456 178 449 178 442L180 351Z" stroke-width="0" />
    <path d="M576 351C576 336 564 324 549 324H436L532 463C537 471 547 474 555 469L568 460C574 456 578 449 578 442L576 351Z" stroke-width="0" />
    <path d="M316 445L379 509L441 445L469 473L407 536L468 598L439 625L379 565L318 625L290 598L351 536L288 473L316 445Z" stroke-width="0" />
    <path d="M315 468L379 532L442 468" stroke-width="16" />
  </g>
  <text x="380" y="624" text-anchor="middle" fill="url(#erkas-purple)" font-family="Manrope, Arial, sans-serif" font-size="110" font-weight="700" letter-spacing="-4">Erka's</text>
  <text x="380" y="676" text-anchor="middle" fill="url(#erkas-purple)" font-family="Manrope, Arial, sans-serif" font-size="38" font-weight="700" letter-spacing="2.8">BUILDING MATERIALS</text>
</svg>
